<?xml version="1.0" encoding="UTF-8"?>
<svg xmlns="http://www.w3.org/2000/svg" width="720" height="540" viewBox="0 0 720 540">
<rect width="100%" height="100%" fill="black"/>
<polyline fill="none" stroke="#ff0000" stroke-width="1" points="72,486 72,445 72,399 72,352 72,306 72,260 72,213 72,167 72,121 72,75 72,54 "/>
<polyline fill="none" stroke="#ff0000" stroke-width="1" points="216,486 216,445 216,399 216,352 216,306 216,260 216,213 216,167 216,121 216,75 216,54 "/>
<polyline fill="none" stroke="#ff0000" stroke-width="1" points="360,486 360,445 360,399 360,352 360,306 360,260 360,213 360,167 360,121 360,75 360,54 "/>
<polyline fill="none" stroke="#ff0000" stroke-width="1" points="504,486 504,445 504,399 504,352 504,306 504,260 504,213 504,167 504,121 504,75 504,54 "/>
<polyline fill="none" stroke="#ff0000" stroke-width="1" points="648,486 648,445 648,399 648,352 648,306 648,260 648,213 648,167 648,121 648,75 648,54 "/>
<polyline fill="none" stroke="#ff0000" stroke-width="1" points="72,414 103,414 195,414 288,414 381,414 473,414 566,414 648,414 "/>
<polyline fill="none" stroke="#ff0000" stroke-width="1" points="72,342 103,342 195,342 288,342 381,342 473,342 566,342 648,342 "/>
<polyline fill="none" stroke="#ff0000" stroke-width="1" points="72,270 103,270 195,270 288,270 381,270 473,270 566,270 648,270 "/>
<polyline fill="none" stroke="#ff0000" stroke-width="1" points="72,198 103,198 195,198 288,198 381,198 473,198 566,198 648,198 "/>
<polyline fill="none" stroke="#ff0000" stroke-width="1" points="72,126 103,126 195,126 288,126 381,126 473,126 566,126 648,126 "/>
<polyline fill="none" stroke="#ff0000" stroke-width="1" points="96,486 96,483 "/>
<polyline fill="none" stroke="#ff0000" stroke-width="1" points="120,486 120,483 120,486 "/>
<polyline fill="none" stroke="#ff0000" stroke-width="1" points="144,486 144,483 144,486 "/>
<polyline fill="none" stroke="#ff0000" stroke-width="1" points="168,486 168,483 168,486 "/>
<polyline fill="none" stroke="#ff0000" stroke-width="1" points="192,486 192,483 192,486 "/>
<polyline fill="none" stroke="#ff0000" stroke-width="1" points="240,486 240,483 240,486 "/>
<polyline fill="none" stroke="#ff0000" stroke-width="1" points="264,486 264,483 264,486 "/>
<polyline fill="none" stroke="#ff0000" stroke-width="1" points="288,486 288,483 288,486 "/>
<polyline fill="none" stroke="#ff0000" stroke-width="1" points="312,486 312,483 312,486 "/>
<polyline fill="none" stroke="#ff0000" stroke-width="1" points="336,486 336,483 336,486 "/>
<polyline fill="none" stroke="#ff0000" stroke-width="1" points="384,486 384,483 384,486 "/>
<polyline fill="none" stroke="#ff0000" stroke-width="1" points="408,486 408,483 408,486 "/>
<polyline fill="none" stroke="#ff0000" stroke-width="1" points="432,486 432,483 432,486 "/>
<polyline fill="none" stroke="#ff0000" stroke-width="1" points="456,486 456,483 456,486 "/>
<polyline fill="none" stroke="#ff0000" stroke-width="1" points="480,486 480,483 480,486 "/>
<polyline fill="none" stroke="#ff0000" stroke-width="1" points="528,486 528,483 528,486 "/>
<polyline fill="none" stroke="#ff0000" stroke-width="1" points="552,486 552,483 552,486 "/>
<polyline fill="none" stroke="#ff0000" stroke-width="1" points="576,486 576,483 576,486 "/>
<polyline fill="none" stroke="#ff0000" stroke-width="1" points="600,486 600,483 600,486 "/>
<polyline fill="none" stroke="#ff0000" stroke-width="1" points="624,486 624,483 624,486 "/>
<polyline fill="none" stroke="#ff0000" stroke-width="1" points="648,472 644,472 "/>
<polyline fill="none" stroke="#ff0000" stroke-width="1" points="648,457 644,457 648,457 "/>
<polyline fill="none" stroke="#ff0000" stroke-width="1" points="648,443 644,443 648,443 "/>
<polyline fill="none" stroke="#ff0000" stroke-width="1" points="648,428 644,428 648,428 "/>
<polyline fill="none" stroke="#ff0000" stroke-width="1" points="648,400 644,400 648,400 "/>
<polyline fill="none" stroke="#ff0000" stroke-width="1" points="648,385 644,385 648,385 "/>
<polyline fill="none" stroke="#ff0000" stroke-width="1" points="648,371 644,371 648,371 "/>
<polyline fill="none" stroke="#ff0000" stroke-width="1" points="648,356 644,356 648,356 "/>
<polyline fill="none" stroke="#ff0000" stroke-width="1" points="648,328 644,328 648,328 "/>
<polyline fill="none" stroke="#ff0000" stroke-width="1" points="648,313 644,313 648,313 "/>
<polyline fill="none" stroke="#ff0000" stroke-width="1" points="648,299 644,299 648,299 "/>
<polyline fill="none" stroke="#ff0000" stroke-width="1" points="648,284 644,284 648,284 "/>
<polyline fill="none" stroke="#ff0000" stroke-width="1" points="648,256 644,256 648,256 "/>
<polyline fill="none" stroke="#ff0000" stroke-width="1" points="648,241 644,241 648,241 "/>
<polyline fill="none" stroke="#ff0000" stroke-width="1" points="648,227 644,227 648,227 "/>
<polyline fill="none" stroke="#ff0000" stroke-width="1" points="648,212 644,212 648,212 "/>
<polyline fill="none" stroke="#ff0000" stroke-width="1" points="648,184 644,184 648,184 "/>
<polyline fill="none" stroke="#ff0000" stroke-width="1" points="648,169 644,169 648,169 "/>
<polyline fill="none" stroke="#ff0000" stroke-width="1" points="648,155 644,155 648,155 "/>
<polyline fill="none" stroke="#ff0000" stroke-width="1" points="648,140 644,140 648,140 "/>
<polyline fill="none" stroke="#ff0000" stroke-width="1" points="648,112 644,112 648,112 "/>
<polyline fill="none" stroke="#ff0000" stroke-width="1" points="648,97 644,97 648,97 "/>
<polyline fill="none" stroke="#ff0000" stroke-width="1" points="648,83 644,83 648,83 "/>
<polyline fill="none" stroke="#ff0000" stroke-width="1" points="648,68 644,68 648,68 "/>
<polyline fill="none" stroke="#ff0000" stroke-width="1" points="72,486 113,486 154,486 195,486 237,486 278,486 319,486 360,486 401,486 442,486 483,486 525,486 566,486 607,486 648,486 648,455 648,424 648,393 648,363 648,332 648,301 648,270 648,239 648,208 648,177 648,147 648,116 648,85 648,54 607,54 566,54 525,54 483,54 442,54 401,54 360,54 319,54 278,54 237,54 195,54 154,54 113,54 72,54 72,85 72,116 72,147 72,177 72,208 72,239 72,270 72,301 72,332 72,363 72,393 72,424 72,455 72,486 "/>
<text x="40" y="492" font-family="sans-serif" font-size="14" fill="#ff0000" text-anchor="middle" dominant-baseline="hanging">23</text>
<text x="54" y="490" font-family="sans-serif" font-size="10" fill="#ff0000" text-anchor="middle" dominant-baseline="hanging">h</text>
<text x="68" y="492" font-family="sans-serif" font-size="14" fill="#ff0000" text-anchor="middle" dominant-baseline="hanging">59</text>
<text x="82" y="490" font-family="sans-serif" font-size="10" fill="#ff0000" text-anchor="middle" dominant-baseline="hanging">m</text>
<text x="96" y="492" font-family="sans-serif" font-size="14" fill="#ff0000" text-anchor="middle" dominant-baseline="hanging">00</text>
<text x="110" y="490" font-family="sans-serif" font-size="10" fill="#ff0000" text-anchor="middle" dominant-baseline="hanging">s</text>
<text x="212" y="492" font-family="sans-serif" font-size="14" fill="#ff0000" text-anchor="middle" dominant-baseline="hanging">30</text>
<text x="226" y="490" font-family="sans-serif" font-size="10" fill="#ff0000" text-anchor="middle" dominant-baseline="hanging">s</text>
<text x="328" y="492" font-family="sans-serif" font-size="14" fill="#ff0000" text-anchor="middle" dominant-baseline="hanging">0</text>
<text x="338" y="490" font-family="sans-serif" font-size="10" fill="#ff0000" text-anchor="middle" dominant-baseline="hanging">h</text>
<text x="352" y="492" font-family="sans-serif" font-size="14" fill="#ff0000" text-anchor="middle" dominant-baseline="hanging">00</text>
<text x="366" y="490" font-family="sans-serif" font-size="10" fill="#ff0000" text-anchor="middle" dominant-baseline="hanging">m</text>
<text x="380" y="492" font-family="sans-serif" font-size="14" fill="#ff0000" text-anchor="middle" dominant-baseline="hanging">00</text>
<text x="394" y="490" font-family="sans-serif" font-size="10" fill="#ff0000" text-anchor="middle" dominant-baseline="hanging">s</text>
<text x="500" y="492" font-family="sans-serif" font-size="14" fill="#ff0000" text-anchor="middle" dominant-baseline="hanging">30</text>
<text x="514" y="490" font-family="sans-serif" font-size="10" fill="#ff0000" text-anchor="middle" dominant-baseline="hanging">s</text>
<text x="630" y="492" font-family="sans-serif" font-size="14" fill="#ff0000" text-anchor="middle" dominant-baseline="hanging">01</text>
<text x="644" y="490" font-family="sans-serif" font-size="10" fill="#ff0000" text-anchor="middle" dominant-baseline="hanging">m</text>
<text x="658" y="492" font-family="sans-serif" font-size="14" fill="#ff0000" text-anchor="middle" dominant-baseline="hanging">00</text>
<text x="672" y="490" font-family="sans-serif" font-size="10" fill="#ff0000" text-anchor="middle" dominant-baseline="hanging">s</text>
<text x="654" y="415" font-family="sans-serif" font-size="14" fill="#ff0000" text-anchor="start" dominant-baseline="central">-0</text>
<text x="674" y="411" font-family="sans-serif" font-size="8" fill="#ff0000" text-anchor="start" dominant-baseline="central">o</text>
<text x="681" y="415" font-family="sans-serif" font-size="14" fill="#ff0000" text-anchor="start" dominant-baseline="central">10</text>
<text x="701" y="413" font-family="sans-serif" font-size="12" fill="#ff0000" text-anchor="start" dominant-baseline="central">'</text>
<text x="654" y="342" font-family="sans-serif" font-size="14" fill="#ff0000" text-anchor="start" dominant-baseline="central">05</text>
<text x="674" y="341" font-family="sans-serif" font-size="12" fill="#ff0000" text-anchor="start" dominant-baseline="central">'</text>
<text x="654" y="271" font-family="sans-serif" font-size="14" fill="#ff0000" text-anchor="start" dominant-baseline="central">0</text>
<text x="665" y="267" font-family="sans-serif" font-size="8" fill="#ff0000" text-anchor="start" dominant-baseline="central">o</text>
<text x="672" y="271" font-family="sans-serif" font-size="14" fill="#ff0000" text-anchor="start" dominant-baseline="central">00</text>
<text x="692" y="269" font-family="sans-serif" font-size="12" fill="#ff0000" text-anchor="start" dominant-baseline="central">'</text>
<text x="654" y="198" font-family="sans-serif" font-size="14" fill="#ff0000" text-anchor="start" dominant-baseline="central">05</text>
<text x="674" y="197" font-family="sans-serif" font-size="12" fill="#ff0000" text-anchor="start" dominant-baseline="central">'</text>
<text x="654" y="126" font-family="sans-serif" font-size="14" fill="#ff0000" text-anchor="start" dominant-baseline="central">10</text>
<text x="674" y="125" font-family="sans-serif" font-size="12" fill="#ff0000" text-anchor="start" dominant-baseline="central">'</text>
<text x="360" y="510" font-family="sans-serif" font-size="14" fill="#ff0000" text-anchor="middle" dominant-baseline="hanging">Right ascension</text>
<text x="719" y="270" font-family="sans-serif" font-size="14" fill="#ff0000" text-anchor="middle" dominant-baseline="alphabetic" transform="rotate(-90,719,270)">Declination</text>
<text x="360" y="30" font-family="sans-serif" font-size="14" fill="#ff0000" text-anchor="middle" dominant-baseline="alphabetic">A FITS test</text>
</svg>
