/* XPM */
static char * img[] = {
"40 7 9 1",
"  s None c None",
". c #000000",
"# c #ffff00",
"a c #00ff00",
"b c #ff0000",
"c c #0000ff",
"d c #ffffff",
"e c #ff00ff",
"f c #00ffff",
"bbbbbaaaaacccccfffffeeeee#####.....ddddd",
"bbbbbaaaaacccccfffffeeeee#####.....ddddd",
"bbbbbaaaaacccccfffffeeeee#####.....ddddd",
"bbbbbaaaaacccccfffffeeeee#####.....ddddd",
"bbbbbaaaaacccccfffffeeeee#####.....ddddd",
"bbbbbaaaaacccccfffffeeeee#####.....ddddd",
"bbbbbaaaaacccccfffffeeeee#####.....ddddd"};