#define append_width 32
#define append_height 32
static char append_bits[] = {
  0x00, 0x00, 0x00, 0x00,
  0x00, 0x00, 0x00, 0x00,
  0x00, 0x00, 0x00, 0x00,
  0x00, 0x00, 0x00, 0x00,
  0xc0, 0xff, 0x3f, 0x00,
  0xc0, 0xff, 0x3f, 0x00,
  0xc0, 0x00, 0xf0, 0x00,
  0xc0, 0x00, 0xf0, 0x00,
  0xc0, 0x00, 0x30, 0x03,
  0xc0, 0x00, 0x30, 0x03,
  0xc0, 0x00, 0xf0, 0x0f,
  0xc0, 0x00, 0xf0, 0x0f,
  0xc0, 0x30, 0x00, 0x0c,
  0xc0, 0x30, 0x00, 0x0c,
  0xc0, 0xf0, 0x00, 0x0c,
  0xc0, 0xf0, 0x00, 0x0c,
  0xfc, 0xff, 0x03, 0x0c,
  0xfc, 0xff, 0x03, 0x0c,
  0xfc, 0xff, 0x03, 0x0c,
  0xfc, 0xff, 0x03, 0x0c,
  0xc0, 0xf0, 0x00, 0x0c,
  0xc0, 0xf0, 0x00, 0x0c,
  0xc0, 0x30, 0x00, 0x0c,
  0xc0, 0x30, 0x00, 0x0c,
  0xc0, 0x00, 0x00, 0x0c,
  0xc0, 0x00, 0x00, 0x0c,
  0xc0, 0x00, 0x00, 0x0c,
  0xc0, 0x00, 0x00, 0x0c,
  0xc0, 0xff, 0xff, 0x0f,
  0xc0, 0xff, 0xff, 0x0f,
  0x00, 0x00, 0x00, 0x00,
  0x00, 0x00, 0x00, 0x00};
